# xmcd
#
# Track frame offsets:
#	150
#	10380
#	21705
#	35497
#	47020
#	59872
#	72197
#	86942
#	98667
#	117990
#	129307
#	162185
#	181710
#	195186
#	207763
#	220421
#	232758
#	243633
#	263999
#	273957
#	293042
#	305569
#	320904
#	332764
#
# Disc length: 4598 seconds
# Revision: 0
# Processed by: cddbd v1.5.2PL0 Copyright (c) Steve Scherf et al.
# Submitted via: dBpowerAMP V12.0
#
DISCID=6611f418
DTITLE=The Big Town Playboys - Hole In My Pocket
DYEAR=2015
DGENRE=
TTITLE0=Hurry Baby
TTITLE1=Chicken Shack Boogie
TTITLE2=Happy Pay Day
TTITLE3=Walkin'
TTITLE4=She Walks Right In
TTITLE5=What More Do You Want Me To Do?
TTITLE6=Playboy Boogie
TTITLE7=Come On
TTITLE8=Down The Road A Piece
TTITLE9=I Done Done It
TTITLE10=Shake Your Hips
TTITLE11=Roomin' House Boogie
TTITLE12=Driftin'
TTITLE13=I Like It
TTITLE14=Gotta Do More For My Baby
TTITLE15=Well Oh Well
TTITLE16=Ohh Little Girl
TTITLE17=Your Gonna Win
TTITLE18=Every Day Of The Week
TTITLE19=It Always Rains
TTITLE20=Driftin'
TTITLE21=Undecided Fool
TTITLE22=Hole In My Pocket
TTITLE23=Lamp Post
EXTD=
EXTT0=
EXTT1=
EXTT2=
EXTT3=
EXTT4=
EXTT5=
EXTT6=
EXTT7=
EXTT8=
EXTT9=
EXTT10=
EXTT11=
EXTT12=
EXTT13=
EXTT14=
EXTT15=
EXTT16=
EXTT17=
EXTT18=
EXTT19=
EXTT20=
EXTT21=
EXTT22=
EXTT23=
PLAYORDER=
